<?xml version="1.0" standalone="no"?>
<!DOCTYPE svg PUBLIC "-//W3C//DTD SVG 1.1//EN" "http://www.w3.org/Graphics/SVG/1.1/DTD/svg11.dtd" >
<svg xmlns="http://www.w3.org/2000/svg">
<metadata>Generated by IcoMoon</metadata>
<defs>
<font id="amici-icons" horiz-adv-x="512">
<font-face units-per-em="512" ascent="480" descent="-32" />
<missing-glyph horiz-adv-x="512" />
<glyph unicode="&#x20;" d="" horiz-adv-x="256" />
<glyph unicode="&#xe600;" d="M256 47.8c-25.508 0-50.261 5-73.572 14.86-22.508 9.52-42.719 23.145-60.071 40.497s-30.977 37.563-40.498 60.071c-9.859 23.311-14.858 48.064-14.858 73.572s4.999 50.261 14.859 73.572c9.52 22.508 23.145 42.719 40.498 60.072s37.563 30.978 60.071 40.498c23.311 9.86 48.064 14.859 73.572 14.859s50.261-4.999 73.572-14.859c22.507-9.521 42.719-23.146 60.071-40.498s30.977-37.563 40.497-60.072c9.859-23.311 14.858-48.064 14.858-73.572s-5-50.261-14.86-73.573c-9.52-22.507-23.145-42.719-40.497-60.071s-37.563-30.977-60.071-40.497c-23.311-9.86-48.064-14.859-73.572-14.859zM256 394.43c-86.918 0-157.631-70.712-157.631-157.63s70.713-157.63 157.631-157.63c86.918 0 157.63 70.712 157.63 157.63s-70.712 157.631-157.63 157.631zM339.527 236.8c0-46.131-37.397-83.527-83.527-83.527s-83.527 37.397-83.527 83.527c0 46.13 37.397 83.527 83.527 83.527s83.527-37.397 83.527-83.527z" />
<glyph unicode="&#xe601;" d="M256 221.208l-191.746-192.086-15.571 15.579 191.774 192.101-191.774 192.1 15.57 15.578 191.747-192.083 191.746 192.083 15.572-15.578-191.774-192.101 191.774-192.102-15.57-15.579z" />
<glyph unicode="&#xe602;" d="M256 14.4c-1.036 0-2.128 0.103-3.332 0.317-0.621 0.171-2.407 0.726-3.911 1.211l-204.109 81.639c-6.702 2.705-11.048 9.129-11.048 16.355v327.68c0 5.841 2.891 11.291 7.732 14.579 2.925 1.978 6.346 3.028 9.884 3.028 2.242 0 4.434-0.422 6.515-1.253l198.269-79.319 198.274 79.32c2.077 0.829 4.272 1.251 6.517 1.251 3.544 0 6.959-1.047 9.877-3.028 4.841-3.286 7.731-8.736 7.731-14.577v-327.68c0-7.229-4.353-13.639-11.093-16.327l-204.111-81.624c-1.526-0.501-3.356-1.081-3.948-1.243-1.105-0.214-2.219-0.327-3.249-0.327zM273.6 351.093v-304.157l179.84 71.936v304.184l-179.84-71.963zM58.56 118.897l179.84-71.936v304.131l-179.84 71.964v-304.159zM320.295 173.247l86.425 34.583v-17.429l-86.425-34.583v17.429zM105.28 190.401v17.429l86.4-34.582v-17.429l-86.4 34.582zM320.295 279.614l86.425 34.561v-17.43l-86.425-34.562v17.43zM105.28 296.745v17.429l86.4-34.56v-17.429l-86.4 34.56z" />
<glyph unicode="&#xe603;" d="M52 252.080h408v-30.56h-408v30.56z" />
<glyph unicode="&#xe604;" d="M460 252.080h-188.72v188.72h-30.56v-188.72h-188.72v-30.56h188.72v-188.72h30.56v188.72h188.72z" />
<glyph unicode="&#xe605;" d="M340.151 119.809l-7.949-5.777c-36.034-26.192-78.488-40.038-122.769-40.038-55.931 0-108.51 21.777-148.053 61.32s-61.319 92.123-61.319 148.053c0 55.931 21.777 108.51 61.32 148.053s92.122 61.32 148.053 61.32c55.931 0 108.51-21.778 148.053-61.32s61.32-92.122 61.32-148.053c0-44.251-13.854-86.712-40.064-122.796l-5.774-7.95 139.24-139.216-32.815-32.814-139.243 139.22zM209.434 466.664c-101.070 0-183.297-82.227-183.297-183.297s82.227-183.298 183.297-183.298 183.297 82.228 183.297 183.298-82.228 183.297-183.298 183.297z" />
<glyph unicode="&#xe606;" d="M256.096 65.035l-0.125 0.12-0.096-0.096-255.861 255.413 13.188 13.182 242.796-242.386 242.797 242.386 13.188-13.182zM256.096 139.944l-0.125 0.12-0.096-0.096-255.861 255.413 13.188 13.182 242.796-242.386 242.797 242.386 13.188-13.182z" />
<glyph unicode="&#xe607;" d="M511.985 153.126l-13.188-13.182-242.797 242.386-242.796-242.386-13.188 13.182 256.082 255.438zM511.985 78.217l-13.188-13.182-242.797 242.386-242.796-242.386-13.188 13.182 256.082 255.438z" />
<glyph unicode="&#xe608;" d="M84.236 236.673l0.121 0.125-0.094 0.096 255.411 255.86 13.182-13.188-242.385-242.795 242.385-242.797-13.182-13.188zM159.144 236.673l0.12 0.125-0.095 0.096 255.412 255.86 13.182-13.188-242.385-242.795 242.385-242.797-13.182-13.188z" />
<glyph unicode="&#xe609;" d="M172.327-19.215l-13.182 13.188 242.386 242.797-242.386 242.795 13.182 13.189 255.438-256.082zM97.418-19.215l-13.182 13.188 242.385 242.797-242.386 242.795 13.182 13.189 255.438-256.082z" />
<glyph unicode="&#xe60a;" d="M256-6.2c-64.908 0-125.93 25.276-171.827 71.173s-71.173 106.92-71.173 171.827c0 64.908 25.276 125.93 71.173 171.827s106.919 71.173 171.827 71.173c64.907 0 125.931-25.276 171.827-71.173s71.173-106.919 71.173-171.827c0-64.907-25.276-125.931-71.173-171.827s-106.92-71.173-171.827-71.173zM256 441.8c-113.038 0-205-91.962-205-205s91.962-205 205-205c113.037 0 205 91.963 205 205s-91.963 205-205 205zM237 228.93v122.87h38v-107.13l81.243-81.242-26.871-26.871-92.372 92.373z" />
<glyph unicode="&#xe60b;" d="M305.104 56.515l-4.509 4.509-6.324-0.805c-12.611-1.606-25.486-2.419-38.271-2.419-133.99 0-243 87.477-243 195s109.010 195 243 195 243-87.477 243-195c0-58.552-32.465-113.515-89.068-150.796l-4.844-3.19-0.861-5.735c-0.815-5.42-1.227-10.896-1.227-16.279 0-34.615 23.26-62.917 50.107-81.551-51.347 3.7-103.311 16.573-148.003 61.266zM172.928 396.223c-24.802-8.524-46.936-20.611-65.787-35.927-36.203-29.415-56.141-67.591-56.141-107.496s19.938-78.082 56.142-107.497c18.848-15.313 40.981-27.4 65.786-35.926 26.215-9.009 54.164-13.577 83.072-13.577 11.181 0 22.443 0.711 33.48 2.114 2.122 0.271 4.287 0.407 6.436 0.407 13.422 0 26.565-5.444 36.059-14.936 3.845-3.847 7.827-7.481 11.835-10.805l20.319-16.847 0.969 26.377c0.203 5.527 0.725 11.115 1.551 16.61 2.146 14.301 10.305 27.065 22.382 35.020 22.622 14.898 41.119 33.674 53.491 54.294 12.261 20.438 18.478 42.228 18.478 64.766 0 39.905-19.938 78.082-56.141 107.497-18.85 15.314-40.982 27.402-65.787 35.927-26.218 9.008-54.167 13.576-83.072 13.576s-56.854-4.568-83.072-13.577z" />
<glyph unicode="&#xe60c;" d="M256 11.345c-32.54 0-63.938 6.832-93.323 20.307-28.32 12.986-53.325 31.431-74.32 54.824l-4.346 4.842-53.465-38.2v161.017l140.894-60.384-61.404-43.868 5.752-6.064c36.991-38.997 86.786-60.474 140.212-60.474 89.264 0 166.874 61.45 187.859 147.356l29.603-12.666c-12.433-46.019-39.625-87.56-77.048-117.498-19.517-15.614-41.288-27.773-64.704-36.141-24.238-8.661-49.711-13.053-75.71-13.053zM340.56 319.848l61.406 43.87-5.757 6.064c-37.016 38.995-86.81 60.471-140.211 60.471-88.81 0-166.363-61.091-187.675-146.476l-29.639 12.272c12.502 45.891 39.7 87.298 77.067 117.137 19.504 15.576 41.252 27.704 64.641 36.048 24.208 8.639 49.645 13.018 75.606 13.018 32.536 0 63.931-6.832 93.315-20.307 28.313-12.984 53.32-31.43 74.33-54.825l4.347-4.84 53.462 38.2v-161.018l-140.894 60.383z" />
<glyph unicode="&#xe60d;" d="M400 278.4v64c0 79.536-64.464 144-144 144s-144-64.464-144-144v-64c-26.512 0-48-21.488-48-48v-112c0-79.536 64.464-144 144-144h96c79.536 0 144 64.464 144 144v112c0 26.528-21.504 48-48 48zM144 278.4v64c0 61.856 50.144 112 112 112s112-50.144 112-112v-64zM416 182.4v-64c0-61.744-50.256-112-112-112h-96c-61.744 0-112 50.256-112 112v112c0 8.832 7.168 16 16 16 10.672 0 21.328 0 32 0h224c10.656 0 21.312 0 32 0 8.816 0 16-7.168 16-16v-48zM256 175.2c17.664 0 32-14.32 32-32 0-9.744-5.248-15.488-10.656-30.112-4.368-11.809-8.832-19.456-21.344-19.456-11.504 0-16.976 7.744-21.328 19.616-5.344 14.592-10.672 20.24-10.672 29.952 0 17.68 14.336 32 32 32v0z" />
<glyph unicode="&#xe60e;" d="M10-15.6v173.857l70-70 96 96 33.858-33.857-96-96 70-70h-173.858zM302.143 310.4l96 96-70 70h173.857v-173.858l-70 70-96-96-33.857 33.858z" />
<glyph unicode="&#xe60f;" d="M122 422.4l320-192-320-192v384z" />
<glyph unicode="&#xe610;" d="M118.4 384.8h96v-307.2h-96v307.2zM297.6 384.8h96v-307.2h-96v307.2z" />
<glyph unicode="&#xe611;" d="M102.4 384.8h307.2v-307.2h-307.2v307.2z" />
<glyph unicode="&#xe612;" d="M384 380.697h-73.113c-8.653 0-18.304-11.366-18.304-26.598v-52.787h91.418v-75.264h-91.418v-226.048h-86.323v226.023h-78.259v75.29h78.259v44.288c0 63.514 44.083 115.2 104.601 115.2h73.139v-80.103z" />
<glyph unicode="&#xe613;" d="M491.52 376.499c-17.357-7.706-35.968-12.877-55.526-15.232 19.968 11.955 35.303 30.899 42.496 53.453-18.663-11.059-39.347-19.123-61.337-23.45-17.639 18.791-42.752 30.515-70.553 30.515-53.376 0-96.64-43.264-96.64-96.614 0-7.577 0.845-14.951 2.509-22.016-80.307 4.019-151.526 42.496-199.168 100.966-8.346-14.259-13.133-30.873-13.133-48.589 0-33.536 17.075-63.104 43.008-80.435-15.847 0.512-30.745 4.839-43.776 12.083 0-0.41 0-0.793 0-1.203 0-46.822 33.331-85.863 77.517-94.771-8.090-2.202-16.64-3.379-25.472-3.379-6.221 0-12.263 0.589-18.176 1.715 12.288-38.4 48-66.329 90.265-67.098-33.075-25.933-74.727-41.37-120.013-41.37-7.808 0-15.488 0.461-23.040 1.357 42.752-27.418 93.542-43.418 148.147-43.418 177.741 0 274.944 147.251 274.944 274.969 0 4.173-0.077 8.346-0.281 12.493 18.893 13.619 35.251 30.643 48.231 50.022z" />
<glyph unicode="&#xe614;" d="M50.944 343.322c0-38.221 12.775-65.843 37.939-82.048 20.608-13.286 44.544-15.283 56.986-15.283 3.021 0 5.427 0.128 7.117 0.231 0 0-3.942-25.677 15.104-51.097l-0.87 0.026c-32.999 0-140.647-6.912-140.647-95.411 0-90.035 98.867-94.592 118.681-94.592 1.561 0 2.458 0.026 2.458 0.026 0.231 0 1.638-0.051 4.045-0.051 12.723 0 45.619 1.587 76.186 16.461 39.629 19.226 59.75 52.711 59.75 99.456 0 45.184-30.618 72.064-52.992 91.725-13.645 11.981-25.446 22.323-25.446 32.384 0 10.24 8.601 17.946 19.507 27.699 17.613 15.769 34.253 38.221 34.253 80.665 0 37.325-4.839 62.362-34.662 78.234 3.123 1.587 14.106 2.739 19.559 3.507 16.154 2.202 39.782 4.711 39.782 17.895v2.534h-117.709c-1.178-0.026-119.040-4.403-119.040-112.358zM240.973 112.589c2.253-35.993-28.544-62.567-74.778-65.92-46.951-3.456-85.632 17.69-87.885 53.683-1.075 17.28 6.502 34.202 21.376 47.693 15.104 13.645 35.789 22.067 58.342 23.757 2.662 0.154 5.299 0.281 7.936 0.281 43.443 0 72.883-25.549 75.008-59.495zM210.227 367.975c11.546-40.627-5.888-83.098-33.664-90.931-3.2-0.896-6.502-1.357-9.831-1.357-25.472 0-50.688 25.754-60.032 61.235-5.222 19.942-4.813 37.35 1.177 54.118 5.888 16.461 16.461 27.623 29.773 31.36 3.2 0.922 6.528 1.357 9.856 1.357 30.72 0 50.483-12.749 62.72-55.782zM408.601 279.501v76.8h-48.64v-76.8h-76.8v-48.64h76.8v-76.8h48.64v76.8h76.8v48.64h-76.8z" />
<glyph unicode="&#xe615;" d="M40.806 351.079c12.493-6.733 185.575-99.686 192.025-103.143 6.425-3.456 14.771-5.12 23.168-5.12 8.423 0 16.768 1.664 23.193 5.145 6.451 3.456 179.507 96.409 192 103.143 12.519 6.707 24.346 27.776 1.382 27.776h-433.127c-22.963 0-11.162-21.069 1.357-27.801zM476.493 299.879c-14.208-7.424-188.595-98.586-197.299-103.143s-14.771-5.146-23.193-5.146c-8.397 0-14.464 0.589-23.168 5.146s-183.117 95.744-197.299 103.143c-10.009 5.222-9.933-0.896-9.933-5.607s0-187.776 0-187.776c0-10.752 14.31-24.576 25.395-24.576h410.035c11.111 0 25.37 13.824 25.37 24.55 0 0 0 183.065 0 187.776 0 4.736 0.103 10.855-9.907 5.632z" />
<glyph unicode="&#xe616;" d="M416 422.4h-320c-52.8 0-96-43.2-96-96v-192c0-52.8 43.2-96 96-96h320c52.8 0 96 43.2 96 96v192c0 52.8-43.2 96-96 96zM192 102.4v256l160-128-160-128z" />
<glyph unicode="&#xe617;" d="M484.096 336.87c-25.753-147.763-169.6-272.896-212.864-301.466-43.29-28.57-82.739 11.443-97.075 41.728-16.384 34.483-65.51 221.619-78.387 237.082-12.851 15.539-51.456-15.463-51.456-15.463l-18.713 24.986c0 0 78.387 95.36 138.035 107.264 63.232 12.621 63.13-98.919 78.336-160.845 14.72-59.93 24.601-94.234 37.427-94.234 12.877 0 37.427 33.433 64.333 84.659 26.957 51.277-1.152 96.538-53.811 64.359 21.043 128.717 219.93 159.667 194.176 11.929z" />
<glyph unicode="&#xe618;" d="M220.57 147.763c-13.44-70.477-29.85-138.061-78.49-173.363-15.001 106.547 22.041 186.547 39.245 271.488-29.338 49.408 3.533 148.787 65.433 124.288 76.16-30.131-65.945-183.629 29.44-202.803 99.61-20.019 140.262 172.8 78.515 235.495-89.241 90.573-259.789 2.099-238.797-127.513 5.094-31.693 37.837-41.319 13.082-85.043-57.114 12.647-74.163 57.703-71.962 117.76 3.533 98.278 88.32 167.091 173.363 176.614 107.571 12.058 208.512-39.475 222.413-140.647 15.693-114.176-48.512-237.85-163.558-228.941-31.155 2.381-44.237 17.817-68.685 32.666z" />
<glyph unicode="&#xe619;" d="M389.12 230.4c0-73.523-59.623-133.12-133.12-133.12-73.523 0-133.12 59.597-133.12 133.12 0 8.755 0.871 17.305 2.509 25.6h-89.549v-176.947c0-37.99 30.771-68.813 68.813-68.813h302.694c37.99 0 68.813 30.797 68.813 68.813v176.947h-89.523c1.613-8.294 2.483-16.845 2.483-25.6zM407.347 450.56h-302.695c-38.016 0-68.813-30.822-68.813-68.813v-74.547h111.462c24.089 34.048 63.795 56.32 108.697 56.32s84.608-22.272 108.697-56.32h111.463v74.547c0 37.99-30.822 68.813-68.813 68.813zM441.011 365.568c0-6.784-5.529-12.288-12.288-12.288h-36.839c-6.759 0-12.288 5.529-12.288 12.288v36.864c0 6.784 5.555 12.288 12.288 12.288h36.839c6.784 0 12.288-5.529 12.288-12.288v-36.864zM337.92 230.4c0 45.261-36.685 81.92-81.92 81.92s-81.92-36.659-81.92-81.92 36.685-81.92 81.92-81.92 81.92 36.659 81.92 81.92z" />
<glyph unicode="&#xe61a;" d="M244.864 296.423c-34.765 61.824-71.936 112.205-74.675 115.891-56.090-26.496-97.971-78.157-111.001-140.441 5.273-0.103 89.088-1.101 185.677 24.55zM269.926 228.864c2.663 0.845 5.274 1.613 7.962 2.381-5.043 11.443-10.573 22.887-16.333 34.176-103.577-30.976-202.982-28.749-206.515-28.647-0.077-2.125-0.154-4.224-0.154-6.375 0-51.738 19.559-98.842 51.609-134.477-0.051 0.051-0.153 0.179-0.153 0.179s55.066 97.639 163.584 132.762zM132.377 71.859l0.051 0.077c-1.511 1.178-3.097 2.227-4.557 3.456 2.663-2.151 4.505-3.533 4.505-3.533zM207.821 425.677c-0.179-0.051-0.358-0.077-0.512-0.128 0.281 0.077 0.487 0.103 0.512 0.128v0zM388.839 381.337c-35.43 31.207-81.894 50.176-132.813 50.176-16.358 0-32.205-1.997-47.411-5.683 3.047-4.045 40.806-54.221 75.213-117.325 75.827 28.442 104.499 72.013 105.011 72.832zM256.026-5.12c-130.099 0-235.546 105.447-235.546 235.52s105.447 235.52 235.546 235.52c130.074 0 235.494-105.446 235.494-235.52s-105.421-235.52-235.495-235.52zM290.227 197.504c-118.041-41.139-157.030-123.878-157.798-125.568 34.099-26.649 76.954-42.649 123.597-42.649 27.853 0 54.375 5.658 78.49 15.897-2.969 17.639-14.669 79.257-42.957 152.781-0.435-0.179-0.896-0.307-1.331-0.461zM299.264 278.553c4.711-9.6 9.19-19.328 13.363-29.184 1.51-3.482 2.918-6.938 4.352-10.393 69.478 8.73 137.856-6.093 140.083-6.579-0.461 47.718-17.51 91.495-45.721 125.747-0.409-0.589-32.666-47.181-112.077-79.591zM329.241 207.232c26.419-72.576 37.12-131.635 39.142-143.667 45.184 30.49 77.261 78.848 86.195 134.938-3.968 1.305-60.313 19.149-125.337 8.729z" />
<glyph unicode="&#xe61b;" d="M126.029 128c-55.475 0-100.429 45.798-100.429 102.4s44.953 102.4 100.429 102.4c55.475 0 100.454-45.824 100.454-102.4s-44.979-102.4-100.454-102.4zM385.945 128c-55.501 0-100.505 45.798-100.505 102.4s45.005 102.4 100.505 102.4c55.45 0 100.454-45.824 100.454-102.4s-45.005-102.4-100.454-102.4z" />
<glyph unicode="&#xe61c;" d="M399.36 20.582c-19.865-9.472-37.888-16.154-53.99-19.968-16.128-3.789-33.587-5.735-52.301-5.735-21.274 0-40.064 2.739-56.448 8.166-16.333 5.453-30.259 13.209-41.831 23.219-11.546 10.112-19.559 20.787-24.013 32.128-4.48 11.341-6.707 27.776-6.707 49.305v165.223h-51.43v66.663c18.279 6.016 33.971 14.592 46.976 25.83 13.056 11.213 23.501 24.704 31.411 40.448 7.885 15.744 13.286 35.737 16.281 60.057h66.176v-119.065h110.464v-73.933h-110.464v-120.807c0-27.289 1.433-44.825 4.327-52.608 2.816-7.731 8.141-13.926 15.897-18.56 10.342-6.247 22.093-9.37 35.353-9.37 23.577 0 47.002 7.757 70.298 23.245v-74.24z" />
<glyph unicode="&#xe61d;" d="M129.946 408.32c0-27.213-20.096-49.254-53.145-49.254-31.104 0-51.2 22.041-51.2 49.255 0 27.853 20.761 49.254 52.505 49.254s51.2-21.401 51.84-49.254zM28.211 3.225v316.928h98.509v-316.928h-98.509zM185.677 219.059c0 39.527-1.305 72.576-2.611 101.095h85.555l4.557-44.083h1.945c12.954 20.762 44.723 51.2 97.869 51.2 64.793 0 113.408-43.417 113.408-136.755v-187.315h-98.509v175.642c0 40.832-14.285 68.711-49.92 68.711-27.213 0-43.392-18.79-50.534-36.941-2.611-6.477-3.251-15.539-3.251-24.627v-182.784h-98.509v215.859z" />
<glyph unicode="&#xe61e;" d="M337.408 196.864c-18.381 0-33.28-20.634-33.28-46.055 0-25.447 14.899-46.080 33.28-46.080s33.28 20.634 33.28 46.080c-0.026 25.447-14.925 46.055-33.28 46.055zM453.274 316.774c3.789 9.344 3.968 62.464-16.231 113.305 0 0-46.387-5.069-116.531-53.222-14.72 4.070-39.629 6.093-64.512 6.093-24.909 0-49.792-2.048-64.537-6.093-70.118 48.154-116.48 53.222-116.48 53.222-20.198-50.841-20.045-103.961-16.23-113.305-23.757-25.805-38.272-56.781-38.272-99.097 0-183.962 152.627-186.905 191.155-186.905 8.73 0 26.087-0.026 44.39-0.051 18.304 0.026 35.661 0.051 44.339 0.051 38.553 0 191.155 2.944 191.155 186.905 0 42.317-14.49 73.293-38.246 99.098zM256.717 53.376h-1.408c-96.563 0-171.776 11.52-171.776 105.37 0 22.477 7.962 43.341 26.778 60.647 31.463 28.851 84.633 13.568 144.999 13.568 0.231 0 0.487 0 0.717 0.025 0.256 0 0.486-0.025 0.691-0.025 60.365 0 113.562 15.283 144.999-13.568 18.816-17.305 26.752-38.17 26.752-60.647 0-93.85-75.161-105.37-171.75-105.37zM174.618 196.864c-18.381 0-33.28-20.634-33.28-46.055 0-25.447 14.899-46.080 33.28-46.080s33.28 20.634 33.28 46.080c0 25.447-14.899 46.055-33.28 46.055z" />
<glyph unicode="&#xe61f;" d="M477.978 178.227c3.405 15.974 5.197 32.563 5.197 49.613 0 127.641-100.582 231.143-224.666 231.143-13.082 0-25.933-1.178-38.4-3.379-20.121 13.005-43.853 20.557-69.35 20.557-71.936 0-130.279-60.032-130.279-134.067 0-24.729 6.553-47.897 17.92-67.789-2.969-15.001-4.557-30.541-4.557-46.464 0-127.642 100.608-231.143 224.666-231.143 14.055 0 27.827 1.331 41.139 3.865 18.329-10.137 39.296-15.897 61.568-15.897 71.987 0 130.304 60.007 130.304 134.041 0 21.376-4.889 41.6-13.543 59.52zM373.735 117.35c-10.394-15.13-25.753-27.136-45.645-35.635-19.712-8.423-43.289-12.697-70.195-12.697-32.281 0-59.315 5.837-80.435 17.382-15.104 8.371-27.546 19.738-36.992 33.741-9.549 14.183-14.387 28.237-14.387 41.779 0 8.474 3.149 15.821 9.369 21.837 6.169 5.939 14.054 8.986 23.45 8.986 7.706 0 14.387-2.381 19.789-7.065 5.171-4.531 9.6-11.213 13.159-19.789 3.994-9.395 8.32-17.305 12.903-23.552 4.403-5.99 10.752-11.059 18.841-15.002 8.141-3.942 19.123-5.965 32.64-5.965 18.56 0 33.792 4.070 45.235 12.135 11.213 7.885 16.64 17.305 16.64 28.851 0 9.113-2.841 16.307-8.678 21.913-6.118 5.863-14.208 10.445-23.987 13.594-10.214 3.277-24.089 6.81-41.216 10.496-23.322 5.146-43.136 11.238-58.88 18.125-16.077 7.014-29.082 16.793-38.579 29.030-9.651 12.391-14.541 28.007-14.541 46.336 0 17.459 5.12 33.203 15.257 46.771 10.061 13.465 24.704 23.962 43.597 31.155 18.662 7.091 40.857 10.701 65.946 10.701 20.070 0 37.709-2.407 52.429-7.091 14.797-4.762 27.289-11.162 37.094-19.047 9.882-7.962 17.229-16.461 21.863-25.241 4.659-8.934 7.014-17.792 7.014-26.368 0-8.269-3.098-15.769-9.216-22.323-6.144-6.579-13.926-9.907-23.065-9.907-8.295 0-14.822 2.099-19.353 6.195-4.199 3.815-8.576 9.805-13.389 18.355-5.606 10.982-12.39 19.609-20.147 25.677-7.577 5.913-20.173 8.935-37.529 8.935-16.102 0-29.209-3.328-38.938-9.907-9.395-6.349-13.927-13.594-13.927-22.169 0-5.274 1.459-9.677 4.48-13.44 3.2-4.019 7.68-7.552 13.389-10.47 5.888-3.046 11.981-5.478 18.073-7.219 6.246-1.767 16.717-4.403 31.104-7.833 18.176-4.019 34.867-8.525 49.639-13.363 14.976-4.915 27.904-11.008 38.451-18.048 10.752-7.219 19.277-16.487 25.319-27.52 6.041-11.111 9.113-24.807 9.113-40.704 0.026-19.098-5.248-36.429-15.693-51.635z" />
<glyph unicode="&#xe620;" d="M17.203 141.926l8.397 35.84-8.397 37.043c-0.23 1.101-2.329 1.945-4.915 1.945-2.611 0-4.71-0.845-4.915-1.945l-7.373-37.043 7.399-35.84c0.205-1.127 2.304-1.945 4.915-1.945 2.56 0 4.659 0.819 4.889 1.945zM69.683 122.035l7.117 55.399-7.117 85.683c-0.205 2.202-2.867 3.917-6.093 3.917-3.251 0-5.913-1.69-6.067-3.891l-6.323-85.709 6.323-55.399c0.154-2.176 2.816-3.865 6.067-3.865 3.225-0.026 5.888 1.69 6.093 3.865zM122.061 122.931l5.939 54.477-5.939 114.099c-0.153 2.663-3.328 4.787-7.194 4.787-3.891 0-7.066-2.099-7.194-4.787l-5.273-114.099 5.273-54.502c0.128-2.663 3.302-4.762 7.194-4.762 3.865 0 7.040 2.099 7.194 4.787zM174.336 123.75l4.864 53.632-4.864 114.944c-0.128 3.175-3.712 5.683-8.192 5.683-4.506 0-8.089-2.509-8.218-5.683l-4.327-114.944 4.352-53.632c0.077-3.149 3.686-5.658 8.192-5.658 4.48 0 8.064 2.457 8.192 5.658zM226.56 124.416l3.84 52.941-3.84 131.789c-0.077 3.635-4.198 6.579-9.165 6.579s-9.063-2.944-9.139-6.579l-3.456-131.738c0-0.077 3.456-52.966 3.456-52.966 0.077-3.584 4.173-6.528 9.139-6.528 4.966-0.026 9.088 2.893 9.165 6.502zM263.117 117.862c0.154 0 181.734-0.103 182.912-0.103 36.454 0 65.971 28.57 65.971 63.821s-29.517 63.821-65.971 63.821c-9.063 0-17.664-1.767-25.523-4.966-5.248 57.498-55.142 102.605-115.968 102.605-14.873 0-29.389-2.816-42.189-7.629-4.966-1.869-6.323-3.763-6.349-7.475v-202.522c0.051-3.917 3.175-7.168 7.117-7.552z" />
<glyph unicode="&#xe621;" d="M129.152 288.927c-40.185-50.773-41.735-119.764-8.678-171.407 29.713 76.303 67.151 162.139 113.252 238.786-43.301-18.296-83.698-41.027-104.573-67.379zM414.937 395.144c-0.478 4.005-2.55 7.366-5.529 9.603-2.849 2.386-19.528 12.742-36.545 3.271-109.157-60.756-168.834-209.953-226.129-321.284 2.131-1.848 4.296-3.716 6.549-5.49 64.053-50.675 157.005-39.836 207.685 24.133 58.368 73.786 53.967 289.768 53.967 289.768z" />
<glyph unicode="&#xe622;" d="M93.091-18.328c-16.147 0-27.592 6.342-34.018 18.85-5.123 9.974-5.254 20.344-5.255 20.447l-0.003 0.476-0.066 0.498c-0.059 0.432-5.831 44.131 7.099 92.346 7.501 27.968 19.754 51.995 36.421 71.413 20.761 24.188 48.596 41.367 82.731 51.061l11.337 3.22-7.962 8.69c-23.517 25.666-36.467 60.502-36.467 98.091 0 72.986 48.938 132.363 109.091 132.363s109.091-59.378 109.091-132.363c0-37.589-12.95-72.425-36.466-98.091l-7.962-8.69 11.337-3.22c34.228-9.72 62.12-26.967 82.901-51.26 16.668-19.486 28.904-43.594 36.368-71.654 12.816-48.185 7.041-91.472 6.981-91.904l-0.069-0.498v-0.501c-0-0.079-0.131-10.449-5.255-20.423-6.426-12.507-17.872-18.85-34.018-18.85h-325.818zM256 214.4c-56.835 0-100.595-16.925-130.060-50.303-20.882-23.654-34.428-56.075-39.176-93.76-3.561-28.27-1-49.409-0.889-50.294l0.796-6.371h338.659l0.796 6.371c0.111 0.886 2.671 22.024-0.89 50.294-4.746 37.683-18.293 70.106-39.175 93.76-29.466 33.378-73.224 50.303-130.060 50.303zM256 447.127c-0.803 0-19.875-0.146-38.944-12.858-17.403-11.601-38.148-36.2-38.148-87.505s20.744-75.904 38.148-87.505c19.067-12.712 38.141-12.858 38.944-12.858s19.875 0.146 38.943 12.858c17.403 11.601 38.147 36.2 38.147 87.505s-20.745 75.904-38.147 87.505c-19.067 12.712-38.14 12.858-38.944 12.858z" />
<glyph unicode="&#xe623;" d="M76.8 6.4c-24.703 0-44.8 20.097-44.8 44.8v307.2c0 24.702 20.097 44.8 44.8 44.8h16.64v-51.2h94.72v51.2h135.68v-51.2h94.72v51.2h16.64c24.703 0 44.8-20.098 44.8-44.8v-307.2c0-24.703-20.097-44.8-44.8-44.8h-358.4zM70.4 44.8h371.2v236h-371.2v-236zM359.68 380.16v74.24h23.040v-74.24h-23.040zM129.28 380.16v74.24h23.040v-74.24h-23.040z" />
<glyph unicode="&#xe624;" d="M132.030 228.688c-11.29 0-20.439-9.148-20.439-20.439 0-11.304 9.15-20.445 20.439-20.445s20.44 9.141 20.44 20.445c0.001 11.291-9.149 20.439-20.44 20.439zM378.986 228.972c-11.29 0-20.447-9.143-20.447-20.446s9.157-20.447 20.447-20.447c11.289 0 20.433 9.142 20.433 20.447 0 11.302-9.144 20.446-20.433 20.446zM129.251 269.070c-33.586 0-60.814-27.234-60.814-60.821 0-33.607 27.228-60.814 60.814-60.814 33.594 0 60.821 27.207 60.821 60.814 0 33.587-27.227 60.821-60.821 60.821zM129.251 166.108c-23.273 0-42.14 18.866-42.14 42.14 0 23.28 18.867 42.148 42.14 42.148 23.28 0 42.148-18.868 42.148-42.148 0-23.272-18.868-42.14-42.148-42.14zM507.679 331.476h-83.739c-42.709 28.738-101.029 46.691-167.91 46.691-66.907 0-129.231-17.94-171.939-46.691h-79.771c13.008-15.217 22.636-35.809 25.032-49.952-15.037-20.662-23.944-46.074-23.944-73.579 0-69.209 56.096-125.311 125.298-125.311 39.266 0 74.299 18.090 97.274 46.351 9.371-10.944 24.88-32.969 28.023-39.37 0 0 17.995 26.875 28.108 39.258 22.967-28.204 57.973-46.238 97.19-46.238 69.193 0 125.297 56.102 125.297 125.311 0 27.492-8.921 52.883-23.95 73.538 2.382 14.143 12.010 34.757 25.031 49.994zM130.707 107.068c-55.709 0-100.869 45.161-100.869 100.877 0 55.696 45.16 100.862 100.869 100.862s100.876-45.167 100.876-100.862c0-55.716-45.167-100.877-100.876-100.877zM130.9 333.222c35.851 15.613 80.368 24.035 125.13 24.035 44.841 0 85.472-8.45 121.363-24.125-67.38-2.064-121.378-57.287-121.391-125.159-0.014 69.111-56.005 125.151-125.103 125.249zM381.302 107.068c-55.716 0-100.876 45.161-100.876 100.877 0 55.696 45.159 100.862 100.876 100.862 55.701 0 100.861-45.167 100.861-100.862 0-55.716-45.161-100.877-100.861-100.877zM381.259 269.346c-33.592 0-60.813-27.22-60.813-60.82 0-33.579 27.221-60.814 60.813-60.814 33.58 0 60.813 27.236 60.813 60.814 0 33.599-27.233 60.82-60.813 60.82zM381.259 166.386c-23.272 0-42.14 18.866-42.14 42.14 0 23.286 18.868 42.153 42.14 42.153 23.273 0 42.14-18.868 42.14-42.153 0-23.272-18.868-42.14-42.14-42.14z" />
<glyph unicode="&#xe625;" d="M256 457.325c-78.346 0-141.828-63.511-141.828-141.828 0-135.418 141.828-312.022 141.828-312.022s141.828 176.604 141.828 312.022c0 78.317-63.483 141.828-141.828 141.828zM256 237.208c-42.293 0-76.588 34.294-76.588 76.588s34.294 76.588 76.588 76.588 76.587-34.294 76.587-76.588-34.294-76.588-76.588-76.588z" />
<glyph unicode="&#xe626;" d="M287.462 198.938c-40.525-40.55-87.475-79.309-106.035-60.723-26.573 26.547-42.931 49.69-101.504 2.637s-13.594-78.438 12.16-104.192c29.696-29.671 140.391-1.562 249.831 107.853 109.389 109.415 137.549 220.135 107.827 249.831-25.728 25.753-57.088 70.707-104.166 12.16s-23.936-74.931 2.637-101.504c18.509-18.586-20.224-65.511-60.749-106.061z" />
<glyph unicode="&#xe627;" d="M380.361 460.383c0 0-211.47 0-245.319 0-33.856 0-43.809-25.46-43.809-41.493 0-16.044 0-389.78 0-389.78 0-18.060 9.707-24.76 15.157-26.968 5.457-2.213 20.509-4.075 29.527 6.334 0 0 115.819 134.39 117.809 136.381 3.008 3.009 3.008 3.009 6.018 3.009 6.019 0 50.659 0 74.935 0 31.486 0 36.547 22.453 39.835 35.68 2.739 11.077 33.459 168.343 43.719 218.236 7.83 38.074-1.846 58.601-37.871 58.601zM374.514 183.545c2.739 11.077 33.459 168.343 43.719 218.236zM365.872 393.985l-10.298-53.668c-1.231-5.8-8.533-11.904-15.307-11.904-6.771 0-95.568 0-95.568 0-10.753 0-18.45-7.329-18.45-18.072v-11.702c0-10.751 7.744-18.372 18.501-18.372 0 0 73.498 0 81.081 0 7.594 0 15.047-8.324 13.404-16.433-1.649-8.119-9.357-48.34-10.283-52.778-0.927-4.443-6.017-12.037-15.045-12.037-7.609 0-66.184 0-66.184 0-12.053 0-15.697-1.575-23.761-11.595-8.069-10.029-80.588-97.118-80.588-97.118-0.735-0.844-1.452-0.599-1.452 0.32v304.155c0 6.861 5.965 14.91 14.911 14.91 0 0 189.187 0 196.868 0 7.248 0 14.017-6.809 12.169-15.707z" />
<glyph unicode="&#xe628;" d="M304.438 159.666c-8.641-8.713-1.334-24.564-1.334-24.564l65.045-108.609c0 0 10.68-14.32 19.932-14.32 9.295 0 18.477 7.635 18.477 7.635l51.422 73.504c0 0 5.18 9.273 5.299 17.396 0.186 11.553-17.227 14.717-17.227 14.717l-121.744 39.096c-0.001-0.002-11.929 3.164-19.87-4.855zM298.266 214.408c6.23-10.564 23.414-7.486 23.414-7.486l121.469 35.503c0 0 16.553 6.733 18.916 15.709 2.32 8.977-2.73 19.811-2.73 19.811l-58.049 68.376c0 0-5.031 8.646-15.469 9.516-11.508 0.979-18.59-12.949-18.59-12.949l-68.635-108.005c0-0.002-6.067-10.758-0.326-20.475zM240.877 256.516c14.304 3.522 16.574 24.302 16.574 24.302l-0.972 172.935c0 0-2.157 21.333-11.743 27.116-15.035 9.121-19.491 4.359-23.798 3.722l-100.848-37.472c0 0-9.877-3.268-15.021-11.509-7.345-11.676 7.464-28.772 7.464-28.772l104.822-142.878c0 0 10.345-10.698 23.522-7.444zM215.972 186.531c0.361 13.338-16.015 21.35-16.015 21.35l-108.398 54.762c0 0-16.063 6.623-23.861 2.008-5.975-3.53-11.268-9.92-11.786-15.567l-7.060-86.906c0 0-1.058-15.057 2.845-21.91 5.527-9.721 23.714-2.951 23.714-2.951l126.548 27.971c4.916 3.305 13.537 3.602 14.013 21.243zM247.44 139.629c-10.863 5.578-23.862-5.975-23.862-5.975l-84.734-93.283c0 0-10.572-14.264-7.884-23.025 2.533-8.209 6.727-12.289 12.659-15.164l85.096-26.863c0 0 10.317-2.143 18.129 0.121 11.090 3.215 9.047 20.576 9.047 20.576l1.924 126.301c-0.001-0.001-0.434 12.167-10.375 17.312z" />
</font>
</defs>
</svg>
